<svg xmlns="http://www.w3.org/2000/svg" xmlns:xlink="http://www.w3.org/1999/xlink" viewBox="0,0,256,256" width="40px" height="40px"><g fill="none" fill-rule="nonzero" stroke="none" stroke-width="1" stroke-linecap="butt" stroke-linejoin="miter" stroke-miterlimit="10" stroke-dasharray="" stroke-dashoffset="0" font-family="none" font-weight="none" font-size="none" text-anchor="none" style="mix-blend-mode: normal"><g transform="scale(6.4,6.4)"><path d="M31.186,21.769h0.01c0,0 -3.586,5.26 -6.601,9.17c-2.606,3.377 -3.367,6.269 -3.586,7.667c-0.086,0.514 -0.505,0.894 -1.009,0.894c-0.504,0 -0.923,-0.38 -1.008,-0.894c-0.219,-1.398 -0.98,-4.29 -3.586,-7.667c-0.4,-0.523 -0.809,-1.065 -1.218,-1.617l9.845,-11.7l7.924,-9.398c0.875,1.836 1.36,3.89 1.36,6.069c0,2.758 -0.789,5.317 -2.131,7.476z" fill="#92b4ff"></path><path d="M24.033,17.622l-9.845,11.7c-2.682,-3.596 -5.384,-7.553 -5.384,-7.553h0.01c-0.285,-0.457 -0.542,-0.923 -0.761,-1.408l7.914,-9.398c-0.751,0.904 -1.199,2.064 -1.199,3.329c0,2.892 2.34,5.232 5.232,5.232c1.627,0 3.082,-0.742 4.033,-1.902z" fill="#ffffff"></path><path d="M24.185,1.204l-8.152,9.683l-6.24,-5.441c2.436,-3.025 6.107,-4.946 10.207,-4.946c1.465,0 2.873,0.247 4.185,0.704z" fill="#92b4ff"></path><path d="M16.033,10.887l-0.067,0.076l-7.914,9.398c-0.875,-1.836 -1.37,-3.89 -1.37,-6.069c0,-3.367 1.17,-6.459 3.11,-8.846z" fill="#dff0fe"></path><path d="M24.033,17.622c0.751,-0.904 1.199,-2.064 1.199,-3.329c0,-2.892 -2.34,-5.232 -5.232,-5.232c-1.627,0 -3.082,0.742 -4.033,1.902l8.219,-9.76c3.415,1.16 6.211,3.719 7.771,7.02z" fill="#b6dcfe"></path><path d="M20,40c-0.75,0 -1.387,-0.552 -1.515,-1.312c-0.218,-1.372 -0.966,-4.157 -3.536,-7.44c-0.409,-0.527 -0.825,-1.071 -1.241,-1.625c-2.693,-3.563 -5.442,-7.529 -5.469,-7.569l-0.454,-0.784c-0.128,-0.235 -0.245,-0.468 -0.351,-0.7c-0.95,-1.966 -1.434,-4.081 -1.434,-6.277c0,-3.353 1.16,-6.607 3.268,-9.165c2.659,-3.258 6.571,-5.128 10.732,-5.128c1.51,0 2.993,0.246 4.405,0.731c3.542,1.187 6.52,3.84 8.167,7.276c0.948,1.961 1.428,4.076 1.428,6.286c0,2.445 -0.615,4.839 -1.786,6.977h0.079l-0.532,0.784c-0.036,0.053 -3.679,5.316 -6.709,9.193c-2.57,3.284 -3.318,6.069 -3.536,7.437c-0.129,0.764 -0.766,1.316 -1.516,1.316zM9.178,21.652c0.55,0.79 2.961,4.237 5.33,7.368c0.414,0.551 0.827,1.091 1.231,1.613c2.707,3.458 3.501,6.43 3.733,7.894c0.046,0.272 0.268,0.473 0.528,0.473c0.26,0 0.482,-0.201 0.529,-0.478c0.232,-1.459 1.026,-4.431 3.735,-7.892c2.74,-3.504 5.986,-8.154 6.579,-9.008l0.074,-0.12c1.363,-2.163 2.083,-4.656 2.083,-7.209c0,-2.058 -0.447,-4.026 -1.329,-5.852c-1.531,-3.196 -4.296,-5.66 -7.587,-6.764c-1.312,-0.449 -2.685,-0.677 -4.084,-0.677c-3.859,0 -7.489,1.736 -9.959,4.763c-1.961,2.38 -3.041,5.409 -3.041,8.53c0,2.044 0.451,4.013 1.339,5.851c0.205,0.448 0.447,0.89 0.744,1.358zM20,20c-3.309,0 -6,-2.691 -6,-6c0,-1.396 0.489,-2.753 1.376,-3.819c1.134,-1.385 2.821,-2.181 4.624,-2.181c3.309,0 6,2.691 6,6c0,1.396 -0.489,2.753 -1.376,3.819c-1.134,1.385 -2.821,2.181 -4.624,2.181zM20,9c-1.502,0 -2.907,0.662 -3.853,1.817c-0.74,0.89 -1.147,2.02 -1.147,3.183c0,2.757 2.243,5 5,5c1.502,0 2.907,-0.662 3.853,-1.817c0.74,-0.89 1.147,-2.02 1.147,-3.183c0,-2.757 -2.243,-5 -5,-5z" fill="#4788c7"></path></g></g></svg>